<svg width="22" height="22" viewBox="0 0 22 22" fill="none" xmlns="http://www.w3.org/2000/svg">
<path d="M16.1698 12.6617L17.6224 10.0369" stroke="black" stroke-linecap="round" stroke-linejoin="round"/>
<path d="M18.2085 12.0755L15.5837 10.6228" stroke="black" stroke-linecap="round" stroke-linejoin="round"/>
<path d="M16.2082 6.39673L15.2397 8.14661" stroke="black" stroke-linecap="round" stroke-linejoin="round"/>
<path d="M16.5989 7.75605L14.849 6.7876" stroke="black" stroke-linecap="round" stroke-linejoin="round"/>
<path d="M14.9793 14.9031C13.9871 14.6686 13.0752 14.1742 12.3372 13.4707C11.5992 12.7672 11.0618 11.88 10.7802 10.9002C10.4985 9.92032 10.4827 8.88315 10.7344 7.89518C10.9861 6.90721 11.4963 6.00404 12.2125 5.27844C11.2353 5.04548 10.214 5.07263 9.25055 5.35717C8.28706 5.64172 7.41494 6.17374 6.72106 6.90023C6.02717 7.62672 5.53574 8.52234 5.2957 9.49787C5.05567 10.4734 5.07541 11.4948 5.35297 12.4603C5.63052 13.4258 6.1562 14.3018 6.87765 15.0009C7.59909 15.7001 8.49112 16.198 9.46488 16.4451C10.4386 16.6922 11.4602 16.6798 12.4277 16.4093C13.3952 16.1387 14.2749 15.6194 14.9793 14.9031Z" stroke="black" stroke-linecap="round" stroke-linejoin="round"/>
</svg>
